<svg xmlns="http://www.w3.org/2000/svg" version="1.1" xmlns:xlink="http://www.w3.org/1999/xlink" width="960" height="560" viewBox="0 0 960 560" role="img" aria-label="熱的三種傳播"><rect width="960" height="560" fill="#ffffff"></rect><rect width="6" height="44" x="28" y="25" rx="3" ry="3" fill="#087f83"></rect><text font-family="Noto Sans CJK TC, Microsoft JhengHei, PingFang TC, sans-serif" font-size="25" font-weight="700" fill="#17324d" x="48" y="48" text-anchor="start" style="font-size:25px;fill:#17324d;font-weight:700">熱的三種傳播</text><text font-family="Noto Sans CJK TC, Microsoft JhengHei, PingFang TC, sans-serif" font-size="16" font-weight="500" fill="#52677d" x="48" y="78" text-anchor="start" style="font-size:16px;fill:#52677d;font-weight:500">觀察圖中的標示，再對照下方重點</text><rect width="278" height="317" x="40" y="123" rx="16" ry="16" fill="#f5f9fc" stroke-width="1" stroke="#dce6ee"></rect><circle r="14" cx="66" cy="151" fill="#087f83"></circle><text font-family="Noto Sans CJK TC, Microsoft JhengHei, PingFang TC, sans-serif" font-size="16" font-weight="700" fill="white" x="66" y="157" text-anchor="middle" style="font-size:16px;fill:white;font-weight:700">1</text><text font-family="Noto Sans CJK TC, Microsoft JhengHei, PingFang TC, sans-serif" font-size="19" font-weight="500" fill="#17324d" x="89" y="158" text-anchor="start" style="font-size:19px;fill:#17324d;font-weight:500">傳導</text><rect width="225" height="38" x="66" y="263" rx="5" ry="5" fill="#d2dde5"></rect><circle r="6" cx="82" cy="282" fill="#bb3f4e" stroke-width="2" stroke="white"></circle><circle r="6" cx="110" cy="282" fill="#a4455a" stroke-width="2" stroke="white"></circle><circle r="6" cx="138" cy="282" fill="#8c4c67" stroke-width="2" stroke="white"></circle><circle r="6" cx="166" cy="282" fill="#755273" stroke-width="2" stroke="white"></circle><circle r="6" cx="194" cy="282" fill="#5d597f" stroke-width="2" stroke="white"></circle><circle r="6" cx="222" cy="282" fill="#465f8b" stroke-width="2" stroke="white"></circle><circle r="6" cx="250" cy="282" fill="#2e6698" stroke-width="2" stroke="white"></circle><circle r="6" cx="278" cy="282" fill="#176ca4" stroke-width="2" stroke="white"></circle><line x1="88" y1="220" x2="257" y2="220" stroke-linecap="round" stroke-width="3" stroke="#c4671d"></line><polygon points="257,220 248.22417438109628,224.79425538604204 248.22417438109628,215.20574461395796" fill="#c4671d"></polygon><text font-family="Noto Sans CJK TC, Microsoft JhengHei, PingFang TC, sans-serif" font-size="17" font-weight="500" fill="#17324d" x="179" y="414" text-anchor="middle" style="font-size:17px;fill:#17324d;font-weight:500">相鄰粒子傳遞能量</text><rect width="278" height="317" x="347" y="123" rx="16" ry="16" fill="#f5f9fc" stroke-width="1" stroke="#dce6ee"></rect><circle r="14" cx="373" cy="151" fill="#087f83"></circle><text font-family="Noto Sans CJK TC, Microsoft JhengHei, PingFang TC, sans-serif" font-size="16" font-weight="700" fill="white" x="373" y="157" text-anchor="middle" style="font-size:16px;fill:white;font-weight:700">2</text><text font-family="Noto Sans CJK TC, Microsoft JhengHei, PingFang TC, sans-serif" font-size="19" font-weight="500" fill="#17324d" x="396" y="158" text-anchor="start" style="font-size:19px;fill:#17324d;font-weight:500">對流</text><rect width="145" height="115.66" x="415" y="244.34" fill="#d4edf7"></rect><ellipse rx="72.5" ry="6.5" cx="487.5" cy="244.34" fill="#d4edf7" stroke-width="1" stroke="#176ca4"></ellipse><path d="M404 208L414 216V358Q414 366 422 366H553Q561 366 561 358V216L571 208" fill="none" stroke-linejoin="round" stroke-linecap="round" stroke-width="3" stroke="#52677d"></path><line x1="539" y1="334.4" x2="558" y2="334.4" stroke-linecap="round" stroke-width="1.5" stroke="#52677d"></line><line x1="539" y1="302.8" x2="558" y2="302.8" stroke-linecap="round" stroke-width="1.5" stroke="#52677d"></line><line x1="539" y1="271.2" x2="558" y2="271.2" stroke-linecap="round" stroke-width="1.5" stroke="#52677d"></line><line x1="539" y1="239.6" x2="558" y2="239.6" stroke-linecap="round" stroke-width="1.5" stroke="#52677d"></line><path d="M455 329V251H524V329Z" fill="none" stroke-linejoin="round" stroke-linecap="round" stroke-width="2" stroke="#176ca4"></path><line x1="455" y1="301" x2="455" y2="250" stroke-linecap="round" stroke-width="3" stroke="#c4671d"></line><polygon points="455,250 459.79425538604204,258.77582561890375 450.20574461395796,258.77582561890375" fill="#c4671d"></polygon><line x1="524" y1="266" x2="524" y2="328" stroke-linecap="round" stroke-width="3" stroke="#176ca4"></line><polygon points="524,328 519.205744613958,319.22417438109625 528.794255386042,319.22417438109625" fill="#176ca4"></polygon><text font-family="Noto Sans CJK TC, Microsoft JhengHei, PingFang TC, sans-serif" font-size="17" font-weight="500" fill="#17324d" x="486" y="414" text-anchor="middle" style="font-size:17px;fill:#17324d;font-weight:500">流體移動帶走能量</text><rect width="278" height="317" x="654" y="123" rx="16" ry="16" fill="#f5f9fc" stroke-width="1" stroke="#dce6ee"></rect><circle r="14" cx="680" cy="151" fill="#087f83"></circle><text font-family="Noto Sans CJK TC, Microsoft JhengHei, PingFang TC, sans-serif" font-size="16" font-weight="700" fill="white" x="680" y="157" text-anchor="middle" style="font-size:16px;fill:white;font-weight:700">3</text><text font-family="Noto Sans CJK TC, Microsoft JhengHei, PingFang TC, sans-serif" font-size="19" font-weight="500" fill="#17324d" x="703" y="158" text-anchor="start" style="font-size:19px;fill:#17324d;font-weight:500">輻射</text><circle r="23" cx="721" cy="265" fill="#f6d17a" stroke-width="2" stroke="#c4671d"></circle><line x1="753" y1="265" x2="764" y2="265" stroke-linecap="round" stroke-width="2" stroke="#c4671d"></line><line x1="748.712812921102" y1="281" x2="758.2390923627308" y2="286.5" stroke-linecap="round" stroke-width="2" stroke="#c4671d"></line><line x1="737" y1="292.71281292110206" x2="742.5" y2="302.23909236273084" stroke-linecap="round" stroke-width="2" stroke="#c4671d"></line><line x1="721" y1="297" x2="721" y2="308" stroke-linecap="round" stroke-width="2" stroke="#c4671d"></line><line x1="705" y1="292.71281292110206" x2="699.5" y2="302.23909236273084" stroke-linecap="round" stroke-width="2" stroke="#c4671d"></line><line x1="693.287187078898" y1="281" x2="683.7609076372692" y2="286.5" stroke-linecap="round" stroke-width="2" stroke="#c4671d"></line><line x1="689" y1="265" x2="678" y2="265" stroke-linecap="round" stroke-width="2" stroke="#c4671d"></line><line x1="693.287187078898" y1="249" x2="683.7609076372692" y2="243.5" stroke-linecap="round" stroke-width="2" stroke="#c4671d"></line><line x1="705" y1="237.28718707889797" x2="699.5" y2="227.76090763726916" stroke-linecap="round" stroke-width="2" stroke="#c4671d"></line><line x1="721" y1="233" x2="721" y2="222" stroke-linecap="round" stroke-width="2" stroke="#c4671d"></line><line x1="737" y1="237.28718707889797" x2="742.5" y2="227.76090763726916" stroke-linecap="round" stroke-width="2" stroke="#c4671d"></line><line x1="748.712812921102" y1="249" x2="758.2390923627308" y2="243.49999999999997" stroke-linecap="round" stroke-width="2" stroke="#c4671d"></line><circle r="30" cx="874" cy="308" fill="#d4edf7" stroke-width="2" stroke="#176ca4"></circle><path d="M857.5 288.5l10.5 -3.5999999999999996 6 9.6 -6 12.6 5.3999999999999995 16.5 -8.4 8.100000000000001 -4.5 -18 -9 -6.6Z" fill="#6c9270" stroke-linejoin="round" stroke-linecap="round" stroke-width="1" stroke="#6c9270"></path><path d="M880 293.6l13.8 9 -3 7.5 -10.5 5.3999999999999995 -2.4 15 -4.5 -10.5Z" fill="#6c9270" stroke-linejoin="round" stroke-linecap="round" stroke-width="1" stroke="#6c9270"></path><line x1="759" y1="275" x2="828" y2="295" stroke-linecap="round" stroke-width="3" stroke="#c4671d"></line><polygon points="828,295 818.2364129051691,297.16156587724066 820.9058164116695,287.952123779814" fill="#c4671d"></polygon><text font-family="Noto Sans CJK TC, Microsoft JhengHei, PingFang TC, sans-serif" font-size="17" font-weight="500" fill="#17324d" x="793" y="414" text-anchor="middle" style="font-size:17px;fill:#17324d;font-weight:500">可穿過真空傳遞</text><line x1="32" y1="475" x2="928" y2="475" stroke-linecap="round" stroke-width="2" stroke="#bdcddd"></line><text font-family="Noto Sans CJK TC, Microsoft JhengHei, PingFang TC, sans-serif" font-size="19" font-weight="600" fill="#17324d" x="40" y="507" text-anchor="start" style="font-size:19px;fill:#17324d;font-weight:600">辨認關鍵：是否需要介質？介質是否整體流動？</text><text font-family="Noto Sans CJK TC, Microsoft JhengHei, PingFang TC, sans-serif" font-size="16" font-weight="500" fill="#52677d" x="40" y="538" text-anchor="start" style="font-size:16px;fill:#52677d;font-weight:500">實際情境常同時存在三種熱傳方式。</text></svg>