<svg xmlns="http://www.w3.org/2000/svg" version="1.1" xmlns:xlink="http://www.w3.org/1999/xlink" width="960" height="560" viewBox="0 0 960 560" role="img" aria-label="同一時間軸比較響度與音調"><rect width="960" height="560" fill="#ffffff"></rect><rect width="6" height="44" x="28" y="25" rx="3" ry="3" fill="#087f83"></rect><text font-family="Noto Sans CJK TC, Microsoft JhengHei, PingFang TC, sans-serif" font-size="25" font-weight="700" fill="#17324d" x="48" y="48" text-anchor="start" style="font-size:25px;fill:#17324d;font-weight:700">同一時間軸比較響度與音調</text><line x1="104" y1="414" x2="900" y2="414" stroke-linecap="round" stroke-width="1" stroke="#bdcddd" stroke-dasharray="3 5"></line><text font-family="Noto Sans CJK TC, Microsoft JhengHei, PingFang TC, sans-serif" font-size="16" font-weight="500" fill="#52677d" x="89" y="420" text-anchor="end" style="font-size:16px;fill:#52677d;font-weight:500">−1</text><line x1="104" y1="342.5" x2="900" y2="342.5" stroke-linecap="round" stroke-width="1" stroke="#bdcddd" stroke-dasharray="3 5"></line><text font-family="Noto Sans CJK TC, Microsoft JhengHei, PingFang TC, sans-serif" font-size="16" font-weight="500" fill="#52677d" x="89" y="348.5" text-anchor="end" style="font-size:16px;fill:#52677d;font-weight:500">−0.5</text><line x1="104" y1="271" x2="900" y2="271" stroke-linecap="round" stroke-width="1" stroke="#bdcddd" stroke-dasharray="3 5"></line><text font-family="Noto Sans CJK TC, Microsoft JhengHei, PingFang TC, sans-serif" font-size="16" font-weight="500" fill="#52677d" x="89" y="277" text-anchor="end" style="font-size:16px;fill:#52677d;font-weight:500">0</text><line x1="104" y1="199.5" x2="900" y2="199.5" stroke-linecap="round" stroke-width="1" stroke="#bdcddd" stroke-dasharray="3 5"></line><text font-family="Noto Sans CJK TC, Microsoft JhengHei, PingFang TC, sans-serif" font-size="16" font-weight="500" fill="#52677d" x="89" y="205.5" text-anchor="end" style="font-size:16px;fill:#52677d;font-weight:500">0.5</text><line x1="104" y1="128" x2="900" y2="128" stroke-linecap="round" stroke-width="1" stroke="#bdcddd" stroke-dasharray="3 5"></line><text font-family="Noto Sans CJK TC, Microsoft JhengHei, PingFang TC, sans-serif" font-size="16" font-weight="500" fill="#52677d" x="89" y="134" text-anchor="end" style="font-size:16px;fill:#52677d;font-weight:500">1</text><line x1="104" y1="414" x2="104" y2="420" stroke-linecap="round" stroke-width="1" stroke="#52677d"></line><text font-family="Noto Sans CJK TC, Microsoft JhengHei, PingFang TC, sans-serif" font-size="16" font-weight="500" fill="#52677d" x="104" y="442" text-anchor="middle" style="font-size:16px;fill:#52677d;font-weight:500">0</text><line x1="263.2" y1="414" x2="263.2" y2="420" stroke-linecap="round" stroke-width="1" stroke="#52677d"></line><text font-family="Noto Sans CJK TC, Microsoft JhengHei, PingFang TC, sans-serif" font-size="16" font-weight="500" fill="#52677d" x="263.2" y="442" text-anchor="middle" style="font-size:16px;fill:#52677d;font-weight:500">1</text><line x1="422.4" y1="414" x2="422.4" y2="420" stroke-linecap="round" stroke-width="1" stroke="#52677d"></line><text font-family="Noto Sans CJK TC, Microsoft JhengHei, PingFang TC, sans-serif" font-size="16" font-weight="500" fill="#52677d" x="422.4" y="442" text-anchor="middle" style="font-size:16px;fill:#52677d;font-weight:500">2</text><line x1="581.6" y1="414" x2="581.6" y2="420" stroke-linecap="round" stroke-width="1" stroke="#52677d"></line><text font-family="Noto Sans CJK TC, Microsoft JhengHei, PingFang TC, sans-serif" font-size="16" font-weight="500" fill="#52677d" x="581.6" y="442" text-anchor="middle" style="font-size:16px;fill:#52677d;font-weight:500">3</text><line x1="740.8" y1="414" x2="740.8" y2="420" stroke-linecap="round" stroke-width="1" stroke="#52677d"></line><text font-family="Noto Sans CJK TC, Microsoft JhengHei, PingFang TC, sans-serif" font-size="16" font-weight="500" fill="#52677d" x="740.8" y="442" text-anchor="middle" style="font-size:16px;fill:#52677d;font-weight:500">4</text><line x1="900" y1="414" x2="900" y2="420" stroke-linecap="round" stroke-width="1" stroke="#52677d"></line><text font-family="Noto Sans CJK TC, Microsoft JhengHei, PingFang TC, sans-serif" font-size="16" font-weight="500" fill="#52677d" x="900" y="442" text-anchor="middle" style="font-size:16px;fill:#52677d;font-weight:500">5</text><line x1="104" y1="123" x2="104" y2="414" stroke-linecap="round" stroke-width="2" stroke="#17324d"></line><line x1="104" y1="271" x2="900" y2="271" stroke-linecap="round" stroke-width="2" stroke="#17324d"></line><text font-family="Noto Sans CJK TC, Microsoft JhengHei, PingFang TC, sans-serif" font-size="18" font-weight="500" fill="#17324d" x="104" y="105" text-anchor="start" style="font-size:18px;fill:#17324d;font-weight:500">振動位移（相對單位）</text><text font-family="Noto Sans CJK TC, Microsoft JhengHei, PingFang TC, sans-serif" font-size="18" font-weight="500" fill="#17324d" x="502" y="473" text-anchor="middle" style="font-size:18px;fill:#17324d;font-weight:500">時間（ms）</text><path d="M104,271L107.98,261.124L111.96,251.296L115.94,241.562L119.92,231.968L123.9,222.56L127.88,213.384L131.86,204.483L135.84,195.9L139.82,187.675L143.8,179.848L147.78,172.457L151.76,165.536L155.74,159.118L159.72,153.235L163.7,147.914L167.68,143.181L171.66,139.058L175.64,135.565L179.62,132.719L183.6,130.533L187.58,129.018L191.56,128.181L195.54,128.025L199.52,128.553L203.5,129.761L207.48,131.643L211.46,134.19L215.44,137.391L219.42,141.23L223.4,145.688L227.38,150.745L231.36,156.376L235.34,162.554L239.32,169.25L243.3,176.432L247.28,184.066L251.26,192.115L255.24,200.54L259.22,209.302L263.2,218.358L267.18,227.666L271.16,237.181L275.14,246.857L279.12,256.648L283.1,266.508L287.08,276.39L291.06,286.245L295.04,296.028L299.02,305.692L303,315.189L306.98,324.476L310.96,333.508L314.94,342.24L318.92,350.633L322.9,358.646L326.88,366.24L330.86,373.379L334.84,380.029L338.82,386.159L342.8,391.739L346.78,396.742L350.76,401.145L354.74,404.927L358.72,408.069L362.7,410.556L366.68,412.377L370.66,413.523L374.64,413.989L378.62,413.771L382.6,412.872L386.58,411.296L390.56,409.05L394.54,406.144L398.52,402.593L402.5,398.414L406.48,393.626L410.46,388.253L414.44,382.32L418.42,375.856L422.4,368.89L426.38,361.458L430.36,353.593L434.34,345.334L438.32,336.72L442.3,327.792L446.28,318.593L450.26,309.167L454.24,299.559L458.22,289.814L462.2,279.979L466.18,270.102L470.16,260.228L474.14,250.406L478.12,240.683L482.1,231.104L486.08,221.716L490.06,212.563L494.04,203.689L498.02,195.137L502,186.947L505.98,179.158L509.96,171.808L513.94,164.931L517.92,158.561L521.9,152.727L525.88,147.459L529.86,142.78L533.84,138.714L537.82,135.279L541.8,132.493L545.78,130.367L549.76,128.914L553.74,128.138L557.72,128.045L561.7,128.635L565.68,129.904L569.66,131.847L573.64,134.454L577.62,137.714L581.6,141.61L585.58,146.123L589.56,151.233L593.54,156.915L597.52,163.142L601.5,169.884L605.48,177.108L609.46,184.781L613.44,192.866L617.42,201.323L621.4,210.114L625.38,219.195L629.36,228.523L633.34,238.054L637.32,247.743L641.3,257.543L645.28,267.406L649.26,277.287L653.24,287.138L657.22,296.912L661.2,306.563L665.18,316.043L669.16,325.308L673.14,334.314L677.12,343.018L681.1,351.378L685.08,359.354L689.06,366.908L693.04,374.004L697.02,380.608L701,386.689L704.98,392.218L708.96,397.168L712.94,401.515L716.92,405.239L720.9,408.322L724.88,410.749L728.86,412.509L732.84,413.594L736.82,413.997L740.8,413.718L744.78,412.757L748.76,411.119L752.74,408.812L756.72,405.848L760.7,402.239L764.68,398.004L768.66,393.162L772.64,387.737L776.62,381.754L780.6,375.243L784.58,368.233L788.56,360.76L792.54,352.858L796.52,344.565L800.5,335.921L804.48,326.966L808.46,317.745L812.44,308.3L816.42,298.678L820.4,288.923L824.38,279.082L828.36,269.203L832.34,259.333L836.32,249.518L840.3,239.806L844.28,230.242L848.26,220.874L852.24,211.744L856.22,202.898L860.2,194.377L864.18,186.221L868.16,178.471L872.14,171.162L876.12,164.33L880.1,158.008L884.08,152.225L888.06,147.009L892.04,142.385L896.02,138.375L900,134.999" fill="none" stroke-linejoin="round" stroke-linecap="round" stroke-width="3.5" stroke="#176ca4"></path><line x1="130" y1="521" x2="165" y2="521" stroke-linecap="round" stroke-width="4" stroke="#176ca4"></line><text font-family="Noto Sans CJK TC, Microsoft JhengHei, PingFang TC, sans-serif" font-size="17" font-weight="500" fill="#17324d" x="176" y="527" text-anchor="start" style="font-size:17px;fill:#17324d;font-weight:500">440 Hz／振幅 1</text><path d="M104,271L107.98,261.148L111.96,251.484L115.94,242.192L119.92,233.45L123.9,225.424L127.88,218.268L131.86,212.117L135.84,207.09L139.82,203.282L143.8,200.766L147.78,199.59L151.76,199.776L155.74,201.321L159.72,204.195L163.7,208.344L167.68,213.688L171.66,220.125L175.64,227.533L179.62,235.77L183.6,244.679L187.58,254.09L191.56,263.824L195.54,273.695L199.52,283.514L203.5,293.095L207.48,302.254L211.46,310.817L215.44,318.62L219.42,325.515L223.4,331.369L227.38,336.073L231.36,339.534L235.34,341.689L239.32,342.494L243.3,341.936L247.28,340.025L251.26,336.797L255.24,332.313L259.22,326.66L263.2,319.945L267.18,312.296L271.16,303.86L275.14,294.797L279.12,285.279L283.1,275.49L287.08,265.614L291.06,255.841L295.04,246.358L299.02,237.345L303,228.973L306.98,221.404L310.96,214.78L314.94,209.229L318.92,204.857L322.9,201.746L326.88,199.957L330.86,199.523L334.84,200.452L338.82,202.727L342.8,206.305L346.78,211.117L350.76,217.071L354.74,224.054L358.72,231.933L362.7,240.557L366.68,249.762L370.66,259.371L374.64,269.203L378.62,279.069L382.6,288.781L386.58,298.154L390.56,307.009L394.54,315.177L398.52,322.502L402.5,328.845L406.48,334.084L410.46,338.119L414.44,340.875L418.42,342.297L422.4,342.359L426.38,341.06L430.36,338.424L434.34,334.502L438.32,329.368L442.3,323.121L446.28,315.88L450.26,307.782L454.24,298.983L458.22,289.65L462.2,279.961L466.18,270.102L470.16,260.259L474.14,250.621L478.12,241.372L482.1,232.688L486.08,224.735L490.06,217.665L494.04,211.612L498.02,206.693L502,202.999L505.98,200.604L509.96,199.551L513.94,199.861L517.92,201.528L521.9,204.521L525.88,208.782L529.86,214.23L533.84,220.761L537.82,228.25L541.8,236.555L545.78,245.517L549.76,254.965L553.74,264.719L557.72,274.592L561.7,284.398L565.68,293.947L569.66,303.059L573.64,311.56L577.62,319.286L581.6,326.092L585.58,331.846L589.56,336.44L593.54,339.785L597.52,341.818L601.5,342.5L605.48,341.818L609.46,339.785L613.44,336.44L617.42,331.846L621.4,326.092L625.38,319.286L629.36,311.56L633.34,303.059L637.32,293.947L641.3,284.398L645.28,274.592L649.26,264.719L653.24,254.965L657.22,245.517L661.2,236.555L665.18,228.25L669.16,220.761L673.14,214.23L677.12,208.782L681.1,204.521L685.08,201.528L689.06,199.861L693.04,199.551L697.02,200.604L701,202.999L704.98,206.693L708.96,211.612L712.94,217.665L716.92,224.735L720.9,232.688L724.88,241.372L728.86,250.621L732.84,260.259L736.82,270.102L740.8,279.961L744.78,289.65L748.76,298.983L752.74,307.782L756.72,315.88L760.7,323.121L764.68,329.368L768.66,334.502L772.64,338.424L776.62,341.06L780.6,342.359L784.58,342.297L788.56,340.875L792.54,338.119L796.52,334.084L800.5,328.845L804.48,322.502L808.46,315.177L812.44,307.009L816.42,298.154L820.4,288.781L824.38,279.069L828.36,269.203L832.34,259.371L836.32,249.762L840.3,240.557L844.28,231.933L848.26,224.054L852.24,217.071L856.22,211.117L860.2,206.305L864.18,202.727L868.16,200.452L872.14,199.523L876.12,199.957L880.1,201.746L884.08,204.857L888.06,209.229L892.04,214.78L896.02,221.404L900,228.973" fill="none" stroke-linejoin="round" stroke-linecap="round" stroke-width="3.5" stroke="#c4671d" stroke-dasharray="8 5"></path><line x1="375" y1="521" x2="410" y2="521" stroke-linecap="round" stroke-width="4" stroke="#c4671d" stroke-dasharray="8 5"></line><text font-family="Noto Sans CJK TC, Microsoft JhengHei, PingFang TC, sans-serif" font-size="17" font-weight="500" fill="#17324d" x="421" y="527" text-anchor="start" style="font-size:17px;fill:#17324d;font-weight:500">880 Hz／振幅 0.5</text></svg>