<svg xmlns="http://www.w3.org/2000/svg" version="1.1" xmlns:xlink="http://www.w3.org/1999/xlink" width="960" height="560" viewBox="0 0 960 560" role="img" aria-label="同一金屬塊逐漸浸入水中，物重 5 N"><rect width="960" height="560" fill="#ffffff"></rect><rect width="6" height="44" x="28" y="25" rx="3" ry="3" fill="#087f83"></rect><text font-family="Noto Sans CJK TC, Microsoft JhengHei, PingFang TC, sans-serif" font-size="25" font-weight="700" fill="#17324d" x="48" y="48" text-anchor="start" style="font-size:25px;fill:#17324d;font-weight:700">同一金屬塊逐漸浸入水中，物重 5 N</text><text font-family="Noto Sans CJK TC, Microsoft JhengHei, PingFang TC, sans-serif" font-size="16" font-weight="500" fill="#52677d" x="48" y="78" text-anchor="start" style="font-size:16px;fill:#52677d;font-weight:500">觀察圖中的標示，再對照下方重點</text><rect width="348" height="240.51" x="121" y="191.49" fill="#d4edf7"></rect><ellipse rx="174" ry="6.5" cx="295" cy="191.49" fill="#d4edf7" stroke-width="1" stroke="#176ca4"></ellipse><path d="M110 141L120 149V430Q120 438 128 438H462Q470 438 470 430V149L480 141" fill="none" stroke-linejoin="round" stroke-linecap="round" stroke-width="3" stroke="#52677d"></path><line x1="448" y1="378.6" x2="467" y2="378.6" stroke-linecap="round" stroke-width="1.5" stroke="#52677d"></line><line x1="448" y1="319.2" x2="467" y2="319.2" stroke-linecap="round" stroke-width="1.5" stroke="#52677d"></line><line x1="448" y1="259.8" x2="467" y2="259.8" stroke-linecap="round" stroke-width="1.5" stroke="#52677d"></line><line x1="448" y1="200.4" x2="467" y2="200.4" stroke-linecap="round" stroke-width="1.5" stroke="#52677d"></line><rect width="114" height="94" x="238" y="276" rx="6" ry="6" fill="#b9c7d1" stroke-width="2" stroke="#52677d"></rect><line x1="295" y1="370" x2="295" y2="302" stroke-linecap="round" stroke-width="4" stroke="#176ca4"></line><polygon points="295,302 299.79425538604204,310.77582561890375 290.20574461395796,310.77582561890375" fill="#176ca4"></polygon><line x1="295" y1="276" x2="295" y2="304" stroke-linecap="round" stroke-width="3" stroke="#c4671d"></line><polygon points="295,304 290.20574461395796,295.22417438109625 299.79425538604204,295.22417438109625" fill="#c4671d"></polygon><text font-family="Noto Sans CJK TC, Microsoft JhengHei, PingFang TC, sans-serif" font-size="20" font-weight="500" fill="#176ca4" x="502" y="217" text-anchor="start" style="font-size:20px;fill:#176ca4;font-weight:500">液面</text><line x1="460" y1="191" x2="500" y2="210" stroke-linecap="round" stroke-width="1.5" stroke="#176ca4"></line><text font-family="Noto Sans CJK TC, Microsoft JhengHei, PingFang TC, sans-serif" font-size="21" font-weight="500" fill="#c4671d" x="537" y="282" text-anchor="start" style="font-size:21px;fill:#c4671d;font-weight:500">上表面：壓力較小</text><text font-family="Noto Sans CJK TC, Microsoft JhengHei, PingFang TC, sans-serif" font-size="21" font-weight="500" fill="#176ca4" x="537" y="347" text-anchor="start" style="font-size:21px;fill:#176ca4;font-weight:500">下表面：壓力較大</text><text font-family="Noto Sans CJK TC, Microsoft JhengHei, PingFang TC, sans-serif" font-size="23" font-weight="700" fill="#087f83" x="537" y="405" text-anchor="start" style="font-size:23px;fill:#087f83;font-weight:700">合成向上的浮力</text><line x1="32" y1="475" x2="928" y2="475" stroke-linecap="round" stroke-width="2" stroke="#bdcddd"></line><text font-family="Noto Sans CJK TC, Microsoft JhengHei, PingFang TC, sans-serif" font-size="19" font-weight="600" fill="#17324d" x="40" y="507" text-anchor="start" style="font-size:19px;fill:#17324d;font-weight:600">浮力＝排開液體的重量＝ρ液 g V排。</text><text font-family="Noto Sans CJK TC, Microsoft JhengHei, PingFang TC, sans-serif" font-size="16" font-weight="500" fill="#52677d" x="40" y="538" text-anchor="start" style="font-size:16px;fill:#52677d;font-weight:500">完全浸沒、液體密度與排水體積相同時，更深不表示浮力更大。</text></svg>