<svg xmlns="http://www.w3.org/2000/svg" version="1.1" xmlns:xlink="http://www.w3.org/1999/xlink" width="960" height="560" viewBox="0 0 960 560" role="img" aria-label="四組速率實驗的控制變因"><rect width="960" height="560" fill="#ffffff"></rect><rect width="6" height="44" x="28" y="25" rx="3" ry="3" fill="#087f83"></rect><text font-family="Noto Sans CJK TC, Microsoft JhengHei, PingFang TC, sans-serif" font-size="25" font-weight="700" fill="#17324d" x="48" y="48" text-anchor="start" style="font-size:25px;fill:#17324d;font-weight:700">四組速率實驗的控制變因</text><text font-family="Noto Sans CJK TC, Microsoft JhengHei, PingFang TC, sans-serif" font-size="16" font-weight="500" fill="#52677d" x="48" y="78" text-anchor="start" style="font-size:16px;fill:#52677d;font-weight:500">觀察圖中的標示，再對照下方重點</text><rect width="416" height="312" x="42" y="125" rx="16" ry="16" fill="#f5f9fc" stroke-width="1" stroke="#dce6ee"></rect><circle r="14" cx="68" cy="153" fill="#087f83"></circle><text font-family="Noto Sans CJK TC, Microsoft JhengHei, PingFang TC, sans-serif" font-size="16" font-weight="700" fill="white" x="68" y="159" text-anchor="middle" style="font-size:16px;fill:white;font-weight:700">1</text><text font-family="Noto Sans CJK TC, Microsoft JhengHei, PingFang TC, sans-serif" font-size="19" font-weight="500" fill="#17324d" x="91" y="160" text-anchor="start" style="font-size:19px;fill:#17324d;font-weight:500">大塊</text><rect width="164" height="122.79999999999998" x="169" y="252.20000000000002" fill="#d4edf7"></rect><ellipse rx="82" ry="6.5" cx="251" cy="252.20000000000002" fill="#d4edf7" stroke-width="1" stroke="#176ca4"></ellipse><path d="M158 197L168 205V373Q168 381 176 381H326Q334 381 334 373V205L344 197" fill="none" stroke-linejoin="round" stroke-linecap="round" stroke-width="3" stroke="#52677d"></path><line x1="312" y1="344.2" x2="331" y2="344.2" stroke-linecap="round" stroke-width="1.5" stroke="#52677d"></line><line x1="312" y1="307.4" x2="331" y2="307.4" stroke-linecap="round" stroke-width="1.5" stroke="#52677d"></line><line x1="312" y1="270.6" x2="331" y2="270.6" stroke-linecap="round" stroke-width="1.5" stroke="#52677d"></line><line x1="312" y1="233.8" x2="331" y2="233.8" stroke-linecap="round" stroke-width="1.5" stroke="#52677d"></line><rect width="80" height="40" x="212" y="336" rx="5" ry="5" fill="#bca78e"></rect><circle r="2.5" cx="194" cy="221" fill="white" stroke-width="1" stroke="#176ca4"></circle><circle r="2.5" cx="231" cy="252" fill="white" stroke-width="1" stroke="#176ca4"></circle><circle r="2.5" cx="268" cy="283" fill="white" stroke-width="1" stroke="#176ca4"></circle><circle r="2.5" cx="305" cy="314" fill="white" stroke-width="1" stroke="#176ca4"></circle><circle r="2.5" cx="217" cy="240" fill="white" stroke-width="1" stroke="#176ca4"></circle><circle r="2.5" cx="254" cy="271" fill="white" stroke-width="1" stroke="#176ca4"></circle><text font-family="Noto Sans CJK TC, Microsoft JhengHei, PingFang TC, sans-serif" font-size="19" font-weight="500" fill="#17324d" x="250" y="418" text-anchor="middle" style="font-size:19px;fill:#17324d;font-weight:500">接觸表面較少</text><rect width="416" height="312" x="502" y="125" rx="16" ry="16" fill="#f5f9fc" stroke-width="1" stroke="#dce6ee"></rect><circle r="14" cx="528" cy="153" fill="#087f83"></circle><text font-family="Noto Sans CJK TC, Microsoft JhengHei, PingFang TC, sans-serif" font-size="16" font-weight="700" fill="white" x="528" y="159" text-anchor="middle" style="font-size:16px;fill:white;font-weight:700">2</text><text font-family="Noto Sans CJK TC, Microsoft JhengHei, PingFang TC, sans-serif" font-size="19" font-weight="500" fill="#17324d" x="551" y="160" text-anchor="start" style="font-size:19px;fill:#17324d;font-weight:500">粉末</text><rect width="164" height="122.79999999999998" x="629" y="252.20000000000002" fill="#d4edf7"></rect><ellipse rx="82" ry="6.5" cx="711" cy="252.20000000000002" fill="#d4edf7" stroke-width="1" stroke="#176ca4"></ellipse><path d="M618 197L628 205V373Q628 381 636 381H786Q794 381 794 373V205L804 197" fill="none" stroke-linejoin="round" stroke-linecap="round" stroke-width="3" stroke="#52677d"></path><line x1="772" y1="344.2" x2="791" y2="344.2" stroke-linecap="round" stroke-width="1.5" stroke="#52677d"></line><line x1="772" y1="307.4" x2="791" y2="307.4" stroke-linecap="round" stroke-width="1.5" stroke="#52677d"></line><line x1="772" y1="270.6" x2="791" y2="270.6" stroke-linecap="round" stroke-width="1.5" stroke="#52677d"></line><line x1="772" y1="233.8" x2="791" y2="233.8" stroke-linecap="round" stroke-width="1.5" stroke="#52677d"></line><circle r="4" cx="647" cy="360" fill="#c4671d"></circle><circle r="4" cx="666" cy="360" fill="#c4671d"></circle><circle r="4" cx="685" cy="360" fill="#c4671d"></circle><circle r="4" cx="704" cy="360" fill="#c4671d"></circle><circle r="4" cx="723" cy="360" fill="#c4671d"></circle><circle r="4" cx="742" cy="360" fill="#c4671d"></circle><circle r="4" cx="761" cy="360" fill="#c4671d"></circle><circle r="4" cx="647" cy="349" fill="#c4671d"></circle><circle r="4" cx="666" cy="349" fill="#c4671d"></circle><circle r="4" cx="685" cy="349" fill="#c4671d"></circle><circle r="4" cx="704" cy="349" fill="#c4671d"></circle><circle r="4" cx="723" cy="349" fill="#c4671d"></circle><circle r="4" cx="742" cy="349" fill="#c4671d"></circle><circle r="4" cx="761" cy="349" fill="#c4671d"></circle><circle r="4" cx="647" cy="338" fill="#c4671d"></circle><circle r="4" cx="666" cy="338" fill="#c4671d"></circle><circle r="4" cx="685" cy="338" fill="#c4671d"></circle><circle r="4" cx="704" cy="338" fill="#c4671d"></circle><circle r="4" cx="723" cy="338" fill="#c4671d"></circle><circle r="4" cx="742" cy="338" fill="#c4671d"></circle><circle r="2.5" cx="654" cy="221" fill="white" stroke-width="1" stroke="#176ca4"></circle><circle r="2.5" cx="691" cy="252" fill="white" stroke-width="1" stroke="#176ca4"></circle><circle r="2.5" cx="728" cy="283" fill="white" stroke-width="1" stroke="#176ca4"></circle><circle r="2.5" cx="765" cy="314" fill="white" stroke-width="1" stroke="#176ca4"></circle><circle r="2.5" cx="677" cy="240" fill="white" stroke-width="1" stroke="#176ca4"></circle><circle r="2.5" cx="714" cy="271" fill="white" stroke-width="1" stroke="#176ca4"></circle><circle r="2.5" cx="751" cy="302" fill="white" stroke-width="1" stroke="#176ca4"></circle><circle r="2.5" cx="663" cy="228" fill="white" stroke-width="1" stroke="#176ca4"></circle><circle r="2.5" cx="700" cy="259" fill="white" stroke-width="1" stroke="#176ca4"></circle><circle r="2.5" cx="737" cy="290" fill="white" stroke-width="1" stroke="#176ca4"></circle><circle r="2.5" cx="774" cy="321" fill="white" stroke-width="1" stroke="#176ca4"></circle><circle r="2.5" cx="686" cy="247" fill="white" stroke-width="1" stroke="#176ca4"></circle><circle r="2.5" cx="723" cy="278" fill="white" stroke-width="1" stroke="#176ca4"></circle><circle r="2.5" cx="760" cy="309" fill="white" stroke-width="1" stroke="#176ca4"></circle><circle r="2.5" cx="672" cy="235" fill="white" stroke-width="1" stroke="#176ca4"></circle><circle r="2.5" cx="709" cy="266" fill="white" stroke-width="1" stroke="#176ca4"></circle><circle r="2.5" cx="746" cy="297" fill="white" stroke-width="1" stroke="#176ca4"></circle><circle r="2.5" cx="658" cy="223" fill="white" stroke-width="1" stroke="#176ca4"></circle><text font-family="Noto Sans CJK TC, Microsoft JhengHei, PingFang TC, sans-serif" font-size="19" font-weight="500" fill="#17324d" x="710" y="418" text-anchor="middle" style="font-size:19px;fill:#17324d;font-weight:500">總接觸表面較多</text><line x1="32" y1="475" x2="928" y2="475" stroke-linecap="round" stroke-width="2" stroke="#bdcddd"></line><text font-family="Noto Sans CJK TC, Microsoft JhengHei, PingFang TC, sans-serif" font-size="19" font-weight="600" fill="#17324d" x="40" y="507" text-anchor="start" style="font-size:19px;fill:#17324d;font-weight:600">同樣固體質量、酸的濃度與溫度下，粉末通常反應較快。</text><text font-family="Noto Sans CJK TC, Microsoft JhengHei, PingFang TC, sans-serif" font-size="16" font-weight="500" fill="#52677d" x="40" y="538" text-anchor="start" style="font-size:16px;fill:#52677d;font-weight:500">細化改變的是接觸面積；不是把原子變小，也不保證最終產物更多。</text></svg>