<svg xmlns="http://www.w3.org/2000/svg" version="1.1" xmlns:xlink="http://www.w3.org/1999/xlink" width="960" height="560" viewBox="0 0 960 560" role="img" aria-label="地軸傾斜如何造成四季"><rect width="960" height="560" fill="#ffffff"></rect><rect width="6" height="44" x="28" y="25" rx="3" ry="3" fill="#087f83"></rect><text font-family="Noto Sans CJK TC, Microsoft JhengHei, PingFang TC, sans-serif" font-size="25" font-weight="700" fill="#17324d" x="48" y="48" text-anchor="start" style="font-size:25px;fill:#17324d;font-weight:700">地軸傾斜如何造成四季</text><text font-family="Noto Sans CJK TC, Microsoft JhengHei, PingFang TC, sans-serif" font-size="16" font-weight="500" fill="#52677d" x="48" y="78" text-anchor="start" style="font-size:16px;fill:#52677d;font-weight:500">觀察圖中的標示，再對照下方重點</text><circle r="41" cx="480" cy="275" fill="#f6d17a" stroke-width="2" stroke="#c4671d"></circle><line x1="530" y1="275" x2="541" y2="275" stroke-linecap="round" stroke-width="2" stroke="#c4671d"></line><line x1="523.3012701892219" y1="300" x2="532.8275496308507" y2="305.5" stroke-linecap="round" stroke-width="2" stroke="#c4671d"></line><line x1="505" y1="318.30127018922195" x2="510.5" y2="327.82754963085074" stroke-linecap="round" stroke-width="2" stroke="#c4671d"></line><line x1="480" y1="325" x2="480" y2="336" stroke-linecap="round" stroke-width="2" stroke="#c4671d"></line><line x1="455" y1="318.30127018922195" x2="449.5" y2="327.82754963085074" stroke-linecap="round" stroke-width="2" stroke="#c4671d"></line><line x1="436.69872981077805" y1="300" x2="427.17245036914926" y2="305.5" stroke-linecap="round" stroke-width="2" stroke="#c4671d"></line><line x1="430" y1="275" x2="419" y2="275" stroke-linecap="round" stroke-width="2" stroke="#c4671d"></line><line x1="436.69872981077805" y1="250" x2="427.17245036914926" y2="244.50000000000003" stroke-linecap="round" stroke-width="2" stroke="#c4671d"></line><line x1="455" y1="231.69872981077808" x2="449.5" y2="222.17245036914926" stroke-linecap="round" stroke-width="2" stroke="#c4671d"></line><line x1="480" y1="225" x2="480" y2="214" stroke-linecap="round" stroke-width="2" stroke="#c4671d"></line><line x1="505" y1="231.69872981077808" x2="510.5" y2="222.17245036914926" stroke-linecap="round" stroke-width="2" stroke="#c4671d"></line><line x1="523.3012701892219" y1="249.99999999999997" x2="532.8275496308507" y2="244.49999999999997" stroke-linecap="round" stroke-width="2" stroke="#c4671d"></line><ellipse rx="325" ry="126" cx="480" cy="275" fill="none" stroke-dasharray="6 6" stroke-width="2" stroke="#bdcddd"></ellipse><circle r="59" cx="164" cy="275" fill="#d4edf7" stroke-width="2" stroke="#176ca4"></circle><path d="M131.55 236.65l20.65 -7.08 11.8 18.88 -11.8 24.779999999999998 10.62 32.45 -16.520000000000003 15.930000000000001 -8.85 -35.4 -17.7 -12.98Z" fill="#6c9270" stroke-linejoin="round" stroke-linecap="round" stroke-width="1" stroke="#6c9270"></path><path d="M175.8 246.68l27.14 17.7 -5.9 14.75 -20.65 10.62 -4.72 29.5 -8.85 -20.65Z" fill="#6c9270" stroke-linejoin="round" stroke-linecap="round" stroke-width="1" stroke="#6c9270"></path><line x1="128" y1="358" x2="200" y2="192" stroke-linecap="round" stroke-width="2.5" stroke="#17324d"></line><text font-family="Noto Sans CJK TC, Microsoft JhengHei, PingFang TC, sans-serif" font-size="23" font-weight="700" fill="#17324d" x="164" y="171" text-anchor="middle" style="font-size:23px;fill:#17324d;font-weight:700">北半球夏季</text><text font-family="Noto Sans CJK TC, Microsoft JhengHei, PingFang TC, sans-serif" font-size="18" font-weight="500" fill="#17324d" x="219" y="213" text-anchor="start" style="font-size:18px;fill:#17324d;font-weight:500">N</text><circle r="59" cx="795" cy="275" fill="#d4edf7" stroke-width="2" stroke="#176ca4"></circle><path d="M762.55 236.65l20.65 -7.08 11.8 18.88 -11.8 24.779999999999998 10.62 32.45 -16.520000000000003 15.930000000000001 -8.85 -35.4 -17.7 -12.98Z" fill="#6c9270" stroke-linejoin="round" stroke-linecap="round" stroke-width="1" stroke="#6c9270"></path><path d="M806.8 246.68l27.14 17.7 -5.9 14.75 -20.65 10.62 -4.72 29.5 -8.85 -20.65Z" fill="#6c9270" stroke-linejoin="round" stroke-linecap="round" stroke-width="1" stroke="#6c9270"></path><line x1="759" y1="358" x2="831" y2="192" stroke-linecap="round" stroke-width="2.5" stroke="#17324d"></line><text font-family="Noto Sans CJK TC, Microsoft JhengHei, PingFang TC, sans-serif" font-size="23" font-weight="700" fill="#17324d" x="795" y="171" text-anchor="middle" style="font-size:23px;fill:#17324d;font-weight:700">北半球冬季</text><text font-family="Noto Sans CJK TC, Microsoft JhengHei, PingFang TC, sans-serif" font-size="18" font-weight="500" fill="#17324d" x="850" y="213" text-anchor="start" style="font-size:18px;fill:#17324d;font-weight:500">N</text><line x1="416" y1="243" x2="251" y2="243" stroke-linecap="round" stroke-width="3" stroke="#c4671d"></line><polygon points="251,243 259.77582561890375,238.20574461395796 259.77582561890375,247.79425538604204" fill="#c4671d"></polygon><line x1="542" y1="243" x2="714" y2="243" stroke-linecap="round" stroke-width="3" stroke="#c4671d"></line><polygon points="714,243 705.2241743810963,247.79425538604204 705.2241743810963,238.20574461395796" fill="#c4671d"></polygon><text font-family="Noto Sans CJK TC, Microsoft JhengHei, PingFang TC, sans-serif" font-size="21" font-weight="500" fill="#17324d" x="480" y="432" text-anchor="middle" style="font-size:21px;fill:#17324d;font-weight:500">地軸傾斜方向在公轉中近似不變</text><line x1="32" y1="475" x2="928" y2="475" stroke-linecap="round" stroke-width="2" stroke="#bdcddd"></line><text font-family="Noto Sans CJK TC, Microsoft JhengHei, PingFang TC, sans-serif" font-size="19" font-weight="600" fill="#17324d" x="40" y="507" text-anchor="start" style="font-size:19px;fill:#17324d;font-weight:600">四季主要來自地軸傾斜造成的日照角度與晝長差異。</text><text font-family="Noto Sans CJK TC, Microsoft JhengHei, PingFang TC, sans-serif" font-size="16" font-weight="500" fill="#52677d" x="40" y="538" text-anchor="start" style="font-size:16px;fill:#52677d;font-weight:500">北半球夏季朝向太陽傾斜；圖中的軌道形狀、地球與太陽大小均為示意。</text></svg>